<?xml version="1.0" encoding="utf-8"?>
<!-- Generator: Adobe Illustrator 20.0.0, SVG Export Plug-In . SVG Version: 6.00 Build 0)  -->
<svg version="1.1" id="Layer_1" xmlns="http://www.w3.org/2000/svg" xmlns:xlink="http://www.w3.org/1999/xlink" x="0px" y="0px"
	 viewBox="0 0 350 252" style="enable-background:new 0 0 350 252;" xml:space="preserve">
<style type="text/css">
	.st0{fill:#ffffff;}
	.st1{fill:#9B9072;}
	.st2{fill:#EEA339;}
	.st3{fill:#43604D;}
</style>
<path class="st0" d="M0,0h350v252H0V0z"/>
<path class="st1" d="M139.1,54.5c4.9-1.4,9.7-3.9,15-3.1c8,1.2,13.7,7.3,20.7,10.6c6.2-3.4,11.7-8.1,18.5-10.4
	c10.9-1.6,20.9,3.9,30.7,7.8c2.6-0.2,4.9,0.9,7.2,1.8c6.6,1.8,13.2,4.2,20.2,3.4l0.1,1.2c4.2-0.4,8.5-0.3,12.8-0.3
	c3.6,10,7.5,19.9,11.5,29.8c3.5,9,6.3,18.2,10,27.2c5.5,15.7,12.3,30.8,17.3,46.7c1.4,3.4-0.9,8.4-4.9,8.1
	c-10.5,0.8-20.9-2.2-30.7-5.5c-9.9-3.8-19.7-7.6-29.6-11.3c-8.3-2.4-16.9-5.8-25.7-3.4c-4,1.4-8.4,1.6-12.1,3.9
	c-2.7,1.7-5.5,3.2-8,5.1c-5.4,5.2-12.3,9.1-15.4,16.2c-2.5-0.3-3.9-2.4-5.5-4.1c-7.2-6.9-14.1-14.9-23.9-18.3
	c-9.2-4.4-20.2-4-29.4-0.1c-7.6,1.3-14.4,5.2-21.7,7.4c-13.8,4.1-27.5,9.2-42,10.4c-3.6-0.2-8.9-1.8-8.3-6.4
	c2.9-12,8.9-23,12.5-34.7c2.2-4.7,3.5-9.7,5.4-14.5c0.7-4.4,3.2-8.2,4.8-12.3c2.3-7,5.3-13.7,7.2-20.8c3.4-7.7,6.3-15.7,9.6-23.4
	c4.4-1.2,9.1,0.6,13.6,0c8.4-1.1,16.9-2.4,24.9-5.2C129.2,58.8,133.9,56,139.1,54.5z"/>
<path class="st2" d="M175,63.1c7.5-3.8,14.1-10.8,23-10.9c9.8,1.1,18.7,5.9,28,8.8c5.6,2,11.4,3.3,17.1,4.4
	c6.7,1.4,13.5,0.6,20.3,0.8c2.1,6.3,4.8,12.3,6.9,18.5c6.5,16.1,12.2,32.6,18.1,48.9c4.6,10.4,8.2,21.1,12.1,31.7
	c0.8,2.8,2.6,6.2,0.7,8.9c-1.2,2.2-4.1,1.6-6.2,1.8c-11.7-0.2-23-3.9-33.8-8.3c-4.1-1-7.6-3.6-11.8-4.4c-6.2-1.9-12-5-18.5-6.2
	c-7.2-3.1-15.4-2.8-22.9-0.5c-9.8,1.5-18.1,7.7-25,14.5c-3,2.8-5,6.4-7.8,9.4c-8.9-8.2-16.8-18.3-28.6-22.4
	c-8.8-3.9-19-3.5-27.9-0.2c-2.8,1-6,0.8-8.7,2.2c-5,2.1-9.9,4.4-15.1,6c-13.2,3.5-26.2,8.8-40,9.8c-2.4,0.2-4.7-0.5-7-1.1
	c-0.5-1.5-1.5-3.1-0.9-4.7c2.5-8.4,5.6-16.7,9.2-24.7c1.8-2.9,2.2-6.3,3.2-9.4c9-23.3,17.2-46.9,26.6-70c4.2,0.1,8.5,0.6,12.7,0.5
	c10.7-1,21.2-3.7,31.3-7.4c6.7-2.8,13.6-5.6,20.8-6.8C160.4,52.1,166.9,59.8,175,63.1z"/>
<path class="st1" d="M130.6,66.4c5.7-2,11.2-5.2,17.4-4.8c5,0.1,10.1-0.5,14.8,1.5c4.5,1.6,7.5,6.2,7.8,10.9
	c0.3,6.4,0.5,12.9-0.1,19.3c-0.7,19.5,0,39.1,0.1,58.6c0.1,3.1,0.4,6.3-0.5,9.3c-4.8,0.3-7.2-4.7-11.3-6.4
	c-6.4-2.9-12.6-6.8-19.8-6.6c-7.5-1.4-14.9,0.8-22.2,2.5c-11.8,3.4-23.2,8-34.6,12.6c-5.5,2.3-11.2,5.1-17.3,5.1
	c-3.5-0.4-8.2-2.3-8.1-6.6c2.9-11.4,7.5-22.4,11.3-33.5c3.1-6.3,4.6-13.3,7.5-19.7c4.8-11.2,8-22.9,12.9-34.1
	c1.7-3.9,6.3-0.9,9.4-0.9C109.3,73.6,120.2,70.3,130.6,66.4z"/>
<path class="st1" d="M180.2,70.3c2.9-4.8,8.1-8.7,13.9-8.6c5.3,0.1,10.8-0.6,15.9,1.4c7.4,2.4,14.4,6.1,22,7.9
	c6.6,1.9,13.4,2.4,20.2,3.3l0.6,1.3c-9-0.6-18.1-1.8-26.6-4.9c-8.5-2.4-16.2-7.7-25.2-7.9c-4.7,0-9.9-0.7-13.9,2.4
	c-2.9,2.2-6.7,4.7-6.3,8.9c-0.3,14.3,0.3,28.7,0,43.1c0.1,5.3-0.3,10.7,0.2,16c1.4,9.1,0.1,18.2,0.9,27.3c2.9-2.6,5.5-5.6,9.1-7.4
	c4.5-2.3,9-4.9,14.1-5.9c9.3-2,18.9-0.4,28,1.9c10.7,3.2,21,7.4,31.1,11.9c6.9,1.5,12.9,5.4,19.9,6.4c3.2,0.6,5.3-2.2,7.6-4
	c-0.6-3.6-1.1-7.2-2.4-10.5c-5.6-15.4-11.4-30.7-16.9-46.1c-3.4-11.1-8.7-21.6-12.5-32.6c-2.2,0.3-4.4,0.5-6.6,0.1
	c2.2-1.7,4.9-1.8,7.6-1.5c4.3,12.1,9.7,23.8,13.5,36c5.8,15.7,11.8,31.2,17.1,47c0.7,3.6,2.2,8.7-1.5,11c-2.5,2-5.9,2.2-8.9,1.3
	c-14.5-4-27.9-11-42.1-15.8c-7.5-2.3-15.2-4.2-23-5.1c-4-0.5-7.6,1.3-11.4,2.2c-7.8,1.1-15,5.1-20.5,10.6c-1,1.3-2.7,1-4.2,1.3
	c-0.5-4.1-0.3-8.2-0.2-12.2c0.1-22.7-0.2-45.4,0-68C179.9,77.4,179.2,73.7,180.2,70.3z"/>
<path class="st0" d="M137.9,64.9c2.9-1.1,5.9-2.3,9-2.2c5.9,0.2,12.4-0.7,17.6,2.6c2.7,1.6,3.3,4.9,4.7,7.5
	c0.4,7.4,0.5,14.8-0.1,22.2c-0.2,21.9,0.3,43.7,0.3,65.6c-3.9-1.4-6.4-5.1-10.1-6.8c-6.5-2.9-12.9-7-20.3-6.7
	c-7.9-1.4-15.5,1.2-23.1,2.8c-8.3,2.6-16.5,5.2-24.5,8.5c-5.9,1.7-11.2,4.8-17,6.9c-3.4,1.4-7.1,1.3-10.6,2c-1.8-1-3.8-1.9-5.3-3.3
	c-0.9-2.5,0.5-4.9,1.2-7.2c2.8-8.5,5.5-17,8.7-25.4c1.3-3.3,3.1-6.4,4.1-9.8c1.9-6.7,4.9-13.1,7.5-19.6c3.5-8.7,5.5-18,9.8-26.5
	c1.3-2.2,4.2-1,6.2-0.9c5.4,1,10.7-0.8,16.1-1.2C120.8,71.1,129.5,68.4,137.9,64.9z"/>
<path class="st0" d="M187.1,65.1c4-3,9.2-2.4,13.9-2.4c9.1,0.1,16.8,5.5,25.2,7.9c8.5,3.1,17.6,4.3,26.6,4.9l-0.6-1.3
	c0.2,0,0.8,0.1,1,0.1c2.2,0.4,4.4,0.2,6.6-0.1c3.9,11,9.1,21.4,12.5,32.6c5.5,15.4,11.3,30.7,16.9,46.1c1.3,3.4,1.8,7,2.4,10.5
	c-2.2,1.8-4.4,4.6-7.6,4c-7-1.1-13-4.9-19.9-6.4c-10.2-4.5-20.4-8.8-31.1-11.9c-9.1-2.4-18.7-3.9-28-1.9c-5.1,1-9.6,3.6-14.1,5.9
	c-3.6,1.7-6.2,4.8-9.1,7.4c-0.8-9.1,0.5-18.3-0.9-27.3c-0.5-5.3-0.1-10.7-0.2-16c0.3-14.3-0.3-28.7,0-43.1
	C180.3,69.8,184.2,67.3,187.1,65.1z"/>
<path class="st3" d="M129.1,76.6c2.6-2.8,5-5.8,7.8-8.4c1.2,1.5,2.7,2.9,3.1,4.8c0.1,1.2,0.7,2,1.9,2.3L142,76
	c0,1.2,0.6,1.9,1.6,2.3l0.6,0.2c1.4,4.2,3.9,8,5.5,12.1c3.5,8.5,5,18,3.2,27.1c-0.9,4.5-3.1,8.7-5,12.8c-6.1,10-20.6,15.9-30.8,8.4
	c-0.5-1-1.1-2-1.6-3c2.2-2.2,4.4-4.5,6.2-7.1l0.7-0.9c8.4-9.3,12.2-23,9-35.2c-2.7,3.1-4.7,6.7-6.3,10.4l-0.6,0.3
	c-1.6,0.4-2,2.2-2.6,3.5l-0.4,0.5c-1.7,1-3.1,2.4-3.5,4.4c-3.2,5.2-8.5,9-13.4,12.6c0,0-0.1,0-0.1,0.1l-0.7,0.4
	c-2.9,1.5-6.2,2.4-9.3,1.3c-3.6-2.9-6.6-6.7-7.6-11.3c-1-5.3-0.1-11,3.1-15.4c3.1-3.3,6.4-6.4,9.5-9.7l0.6-0.1
	c1.8,0,3.5-0.8,4.3-2.5l0.3-0.6c4.3-1.1,8.6-2.5,12.9-3.8C121.8,81.7,126.2,80.1,129.1,76.6z"/>
<path class="st1" d="M140,73c1.5-0.1,2.2,0.7,1.9,2.3C140.8,75,140.1,74.3,140,73z"/>
<path class="st1" d="M142,76c1.6-0.1,2.1,0.7,1.6,2.3C142.5,78,142,77.2,142,76z"/>
<path class="st1" d="M121.1,81.1c2.9-1.1,5.5-2.9,8.1-4.5c-2.9,3.5-7.4,5.1-11.6,6.5c-4.3,1.3-8.5,2.7-12.9,3.8
	C109.7,83.9,115.7,83.3,121.1,81.1z"/>
<path class="st1" d="M70.1,84.8c1.5-2.4,1.8-6,4.9-6.9c1.8,0.2,1.7,2.7,2.3,4c-2.9,5.2-5.7,10.4-7.5,16c-3.5,10.3-9.2,19.7-12.9,30
	c-3.9,8.6-6.7,17.6-11.1,26c-2,4.7-4.1,9.4-6,14.1c-1.4,3.4-3.6,6.4-4.4,10c0.7,1.9,2.3,3.9,4.5,4.1c10.3,1.7,21.2,1.9,31.3-1.2
	c10.4-2,20.9-4.1,30.9-7.7c4.6-1.7,9.5-2,14.1-3.4c4.5-1.5,9.4-1.2,13.9-2.9c7.1,0,13.8,2.3,20.6,3.8c3.3,1,6.1,3.2,9.2,4.7
	c3.8,1.7,6.2,5.4,9.7,7.5c1.4,0.7,1.9,2.2,2.3,3.6c-4.8-2.7-8.2-7.3-12.9-10.1c-3.7-2.3-7.6-4.4-11.9-5.2
	c-5.6-1.1-11.1-3.2-16.9-2.6c-25.5,3.1-49.2,15.2-75.1,15.9c-5.6-0.4-11.7,1.5-16.9-1.4c-2.5-1.2-4.8-4.3-3.3-7.1
	c8.2-18.3,16.2-36.7,23.8-55.3c3.8-8.6,8.1-17,11.1-25.9c1.7-5.3,6-9.9,5.8-15.8c-3.1,2.3-4.3,6.2-5.9,9.5
	c-3.2,6.7-5.7,13.6-9.1,20.1c-2.3,4.5-4.1,9.1-6.1,13.8c-9.4,19.8-18,39.9-27.4,59.7c-0.6,1.9-2.5,4.1-1.1,6.1c2,2.9,6,2.6,9.1,2.8
	c15.3-0.2,30.7,0.2,46.1-0.4c25.8,0.8,51.6,0,77.4,0.5l0.9,1.6c-4.7-0.8-9.5-0.9-14.3-0.7c-21.7-0.5-43.3,0-65-0.3
	c-16.4,0.5-32.7-0.1-49.1,0.1c-3.6,0.2-8.4-3.3-6.4-7.2c7.4-15.9,14.7-32,21.8-48.1c3-9.7,8.9-18.1,12.4-27.6
	C63.4,101.2,65.7,92.5,70.1,84.8z"/>
<path class="st1" d="M272.5,78.4c6.2,0,8,7.3,9.8,12.1c3.9,7.6,7.8,15.1,11.1,23c2.9,5.4,4.1,11.6,7.2,16.8
	c4,8.9,8.1,17.8,12.4,26.6c2,3.3,3.4,6.8,4.5,10.5c2.3,5.3,4.6,10.7,7.2,15.8c1,2.3,1,5.8-1.7,6.9c-3.1,1.8-6.7,1.2-10.1,1.2
	c-10.6-0.2-21.4,1.3-32,0c8.3-1.1,16.7-0.1,25-1c5.4-0.7,11.2,1,16.3-1.2c2.5-0.9,2.1-3.9,1.2-5.8c-8.8-19.2-17.3-38.5-26.3-57.6
	c-4.5-10.9-9.4-21.7-14.6-32.3c-2.5-4.9-3.4-11.3-8.7-14.1c2.2,8.6,6.8,16.2,10.4,24.2c3.8,10,8.7,19.5,12.6,29.4
	c5,12.6,10.3,25,15.7,37.3c1.3,3.3,2.9,7,1.4,10.5c-0.6,1.8-2.6,2.5-4.2,2.9c-18.4,2.2-36.6-2.2-54.2-7.3
	c-11.4-3.4-22.9-6.3-34.6-8.1c-6.1-1.1-11.9,1.5-17.9,1.9c1.1-0.9,2.4-1.8,3.9-1.9c5.3-0.9,10.7-2.9,16-1.2c4.9,1.4,10,1.9,15,2.8
	c4.2,1.2,8.4,2.2,12.6,3.6c5.3,2.2,11,3,16.4,5c11.2,2,22.5,5.4,34,4.5c3.8-0.1,8,0.5,11.4-1.8c1.8-2.1,1.2-5.3,0.1-7.7
	c-4.7-11.6-9.8-23-14.5-34.6c-4.9-12.2-10.7-24.1-15.6-36.3C278.8,94.7,274.2,87.1,272.5,78.4z"/>
<path class="st1" d="M144.2,78.6c6.1,9.6,10.6,20.9,10.1,32.4c0,6.9-2,14.1-6.3,19.6c1.9-4.2,4.1-8.3,5-12.8
	c1.8-9.1,0.3-18.6-3.2-27.1C148.1,86.6,145.6,82.8,144.2,78.6z"/>
<path class="st2" d="M69.5,88.3c1.7-3.3,2.8-7.2,5.9-9.5c0.3,5.9-4.1,10.4-5.8,15.8c-3,8.9-7.3,17.3-11.1,25.9
	c-7.6,18.6-15.6,37-23.8,55.3c-1.5,2.8,0.8,5.8,3.3,7.1c5.2,2.9,11.3,1,16.9,1.4c25.9-0.7,49.7-12.7,75.1-15.9
	c5.8-0.5,11.3,1.5,16.9,2.6c4.3,0.8,8.2,3,11.9,5.2c4.7,2.8,8.1,7.4,12.9,10.1c1.6,1.1,4.3,2.4,5.8,0.3c6.4-8,15.6-13.8,25.5-16.3
	c6-0.4,11.8-3,17.9-1.9c11.7,1.8,23.2,4.7,34.6,8.1c17.5,5.1,35.8,9.5,54.2,7.3c1.7-0.4,3.7-1.1,4.2-2.9c1.5-3.5,0-7.2-1.4-10.5
	c-5.5-12.4-10.8-24.8-15.7-37.3c-3.9-9.9-8.9-19.4-12.6-29.4c-3.6-8-8.3-15.7-10.4-24.2c5.3,2.8,6.2,9.2,8.7,14.1
	c5.3,10.6,10.1,21.4,14.6,32.3c9,19.1,17.5,38.4,26.3,57.6c0.9,1.9,1.3,4.9-1.2,5.8c-5.1,2.1-10.9,0.5-16.3,1.2
	c-8.3,0.9-16.7-0.2-25,1c-8.8,0.2-17.6,0.2-26.4-0.1c-10.5-1-21.1-0.1-31.7-0.5c-11-0.6-22.1,0-33.1,0.1c-0.2,2.6-0.5,5.3-0.9,7.9
	c-9.5,0.2-19.1,0.3-28.6,0c-1.4-2.3-0.6-5.1-0.6-7.6l-1.4-0.1c-25.8-0.5-51.6,0.3-77.4-0.5c-15.3,0.5-30.7,0.2-46.1,0.4
	c-3.1-0.1-7.1,0.2-9.1-2.8c-1.5-2,0.4-4.2,1.1-6.1c9.3-19.8,18-39.9,27.4-59.7c1.9-4.6,3.8-9.3,6.1-13.8
	C63.8,101.9,66.3,95,69.5,88.3z"/>
<path class="st1" d="M100,89.9c-0.2-1.6,2.8-3,4.3-2.5C103.6,89.1,101.8,89.8,100,89.9z"/>
<path class="st1" d="M89.9,99.6c2.2-4,5.6-7.4,9.5-9.7C96.3,93.2,93,96.3,89.9,99.6z"/>
<path class="st1" d="M125.2,103.3c1.6-3.8,3.6-7.4,6.3-10.4c3.2,12.3-0.6,25.9-9,35.2c2.5-4.8,6-9,7.5-14.2
	c2.3-5.9,2.3-12.4,1.6-18.6C128.2,96.7,127.7,100.9,125.2,103.3z"/>
<path class="st1" d="M121.9,107.1c0.5-1.3,1-3.1,2.6-3.5C125.2,105,123.5,107.6,121.9,107.1z"/>
<path class="st1" d="M118,112c0.4-2,1.8-3.4,3.5-4.4C122.1,109.4,119.8,112.3,118,112z"/>
<path class="st1" d="M124.9,109.9c0.7-1.3,2.1-1.8,3.3-2.5c-0.1,1.4-0.3,2.8-0.7,4.2c-7.9,12.7-17.6,25.2-31.6,31.6
	c-3.9,1.9-9.8,1.7-11.5-3c3.7-2,7.8-3.1,11.5-5.1C107.5,129.3,118,120.9,124.9,109.9z"/>
<path class="st1" d="M104.5,124.6c0,0,0.1-0.1,0.1-0.1C104.6,124.6,104.5,124.6,104.5,124.6z"/>
<path class="st1" d="M94.5,126.3c3.2,1.1,6.4,0.2,9.3-1.3c-1.8,1.3-3.6,2.6-5.8,3.1C96.7,127.8,95.6,127,94.5,126.3z"/>
<path class="st1" d="M115.1,135.4c2.1-2.2,4.1-4.7,6.7-6.4c-1.8,2.6-4,4.8-6.2,7.1c0.5,1,1,2,1.6,3
	C116,138.3,113.7,136.9,115.1,135.4z"/>
<path class="st1" d="M189.9,190.8c11-0.1,22.1-0.7,33.1-0.1c10.6,0.4,21.1-0.5,31.7,0.5c-2.9,0.5-5.8,0.4-8.7,0.4
	c-18.4,0-36.9-0.1-55.3,0.1c0.1,2.7,0.2,5.4-1,8c-4.2,0.2-8.5,0.2-12.7,0c-5.8-0.2-11.5,1.1-17.3,0.4c-0.3-0.4-1-1.2-1.4-1.6l2,0.1
	c9.5,0.3,19.1,0.2,28.6,0C189.4,196.1,189.7,193.4,189.9,190.8z"/>
<path class="st3" d="M122,201c1.8,0,3.7,0,5.5,0c0,9.1,0,18.2,0,27.3c-1.3,0-2.7-0.1-4-0.1c-0.3-0.5-0.8-1.5-1.1-2.1
	c-2,1-3.9,2.8-6.3,2.4c-3.6-0.1-6.1-3.3-6.6-6.6c-0.7-4.2-0.6-9.4,3-12.4c3.1-2.4,7.4-1.4,10,1.2C122,207.6,121.9,204.3,122,201z"/>
<path class="st3" d="M267.3,202.5c1.8,0,3.6,0,5.5,0c0,7.1,0,14.2,0.1,21.3c3.4,0,6.8,0,10.2,0c0,1.5,0,3,0,4.5
	c-5.2,0-10.5,0-15.8,0C267.3,219.7,267.2,211.1,267.3,202.5z"/>
<path class="st3" d="M28,202.5c1.8,0,3.6,0,5.4,0c1.4,6.9,3.5,13.6,4.4,20.6c1.3-6.9,3.3-13.7,5-20.6c1.7,0,3.4,0,5.1,0
	c1.7,6.5,3.6,13,4.8,19.7c1.7-6.5,3-13.2,4.7-19.8c1.8,0,3.5,0.1,5.3,0.1c-2.2,8.6-4.3,17.2-6.5,25.8c-2.1,0-4.1,0-6.2,0
	c-1.5-6.3-3.4-12.6-4.6-19c-1.4,6.4-3.1,12.6-4.7,18.9c-2,0-4.1,0-6.1,0.1C32.2,219.8,30.3,211.1,28,202.5z"/>
<path class="st3" d="M231,202.5c1.8,0,3.5,0,5.3,0c-0.9,3-2,5.9-3.2,8.7c-1,0-2.9,0-3.8,0C229.8,208.3,230.4,205.4,231,202.5z"/>
<path class="st3" d="M70.5,208.7c4.4-1.4,10.2,0.2,12,4.8c1.4,4,1.3,9-1.7,12.3c-2.7,2.9-7.3,3.4-10.9,2
	C62.2,224.8,62.4,211.1,70.5,208.7z"/>
<path class="st3" d="M93.4,208.5c4.2-1.1,9.5,0.5,11.3,4.8c1.6,3.9,1.5,8.8-1.2,12.1c-3.9,4.7-12.6,4.1-15.5-1.4
	C85.1,218.7,86.7,209.9,93.4,208.5z"/>
<path class="st3" d="M134.4,209.4c3.8-2.1,8.4-1.1,12.3,0.2c-0.5,1.3-1.1,2.6-1.6,4c-2.5-0.7-5.6-2.5-8-0.5c0.7,2.8,4.6,2.8,6.7,4.3
	c4,1.6,4.2,7.9,0.4,9.9c-3.6,1.9-8.1,1.4-11.9,0.3c-0.5-1.4-0.3-3.1-0.4-4.6c3.1,0.6,7.4,3.1,9.8,0c-1.8-3.6-7.2-3-9.3-6.5
	C131.3,214.2,131.8,210.7,134.4,209.4z"/>
<path class="st3" d="M150.7,208.6c1.4-0.1,2.7-0.1,4.1-0.2c0.2,0.7,0.5,1.9,0.7,2.6c3.2-3.6,9-3.7,12.3-0.1
	c3.2-3.9,11.4-3.8,12.5,1.9c0.5,5.1,0.1,10.3,0.2,15.5c-1.7,0-3.5,0-5.2,0c-0.2-4.7,0.5-9.4-0.5-14c-0.9-2.8-5.5-2-5.9,0.7
	c-1.1,4.4-0.5,8.9-0.6,13.4c-1.8,0-3.5,0-5.2,0c-0.2-4.6,0.4-9.4-0.4-14c-1-3.1-5.8-1.8-6.1,1.2c-0.6,4.2-0.1,8.6-0.3,12.8
	c-1.8,0-3.7,0-5.5,0C150.7,221.7,150.8,215.2,150.7,208.6z"/>
<path class="st3" d="M186.8,209.9c3.2-1.3,6.6-2.2,10.1-1.5c2.8,0.4,5.5,2.6,5.5,5.6c0.3,4.7,0,9.5,0.1,14.2c-0.9,0-2.7,0-3.6,0
	c-0.2-0.7-0.7-2-1-2.7c-2.3,2.2-5.6,3.7-8.8,2.7c-4.7-1.1-5.6-8.3-1.6-10.8c3.1-1.6,6.7-1.4,10.1-1.7c-0.5-1.2-0.5-3-2-3.4
	c-2.4-0.6-4.8,0.6-7.1,1.1C187.9,212.4,187.4,211.1,186.8,209.9z"/>
<path class="st3" d="M212.9,210.9c3.3-3.7,10.9-4,12.8,1.2c1,5.3,0.2,10.8,0.5,16.1c-1.8,0-3.5,0-5.2,0c-0.1-4.4,0.3-8.9-0.2-13.2
	c-0.4-3.6-6.2-3.2-6.9,0.1c-0.9,4.3-0.2,8.8-0.4,13.2c-1.8,0-3.7,0-5.5,0c0-6.6,0-13.2,0-19.8C210.1,208.5,212.9,208,212.9,210.9z"
	/>
<path class="st3" d="M240.6,209.6c3.8-2.3,8.6-1.3,12.6,0.1c-0.6,1.3-1.1,2.6-1.7,3.9c-2.6-0.9-6.5-2.8-8.4,0.3
	c2.5,1.5,5.3,2.5,7.9,3.9c3.2,1.8,3.2,7.2,0.1,9.2c-3.7,2.4-8.5,1.5-12.6,0.5c0-1.1,0-3.3,0-4.4c3,0.7,6.3,2.2,9.4,0.9
	c0.1-0.5,0.2-1.4,0.2-1.9c-2.2-1.7-5-2.4-7.4-3.8C237.6,216.6,237.5,211.3,240.6,209.6z"/>
<path class="st3" d="M292.4,208.6c4.2-1.2,9.6,0.3,11.5,4.6c1.7,4.1,1.5,9.6-1.7,12.9c-4.2,3.9-12.4,3.1-15-2.2
	C284.4,218.6,285.9,210.2,292.4,208.6z"/>
<path class="st3" d="M311.2,209.3c4.7-2.1,10.1-0.3,15-0.8c0,0.9,0,1.8,0,2.7c-0.7,0.2-2,0.6-2.7,0.7c0.3,2.3,1.1,5-0.6,6.9
	c-2.1,2.9-6,2.9-9.2,2.9c-0.2,0.5-0.5,1.5-0.7,2c3.1,0.6,6.3,0.3,9.4,0.8c5.1,1.3,4.5,9.3-0.1,11c-4.6,1.9-11.1,2.7-14.9-1.1
	c-2.4-3-0.1-6.7,3.1-7.8c-0.5-0.4-1.4-1.2-1.8-1.6c0.2-1.7,0.9-3.2,2.1-4.4C307.2,217.9,307,211.4,311.2,209.3z"/>
<path class="st0" d="M314.2,212.1c1.3-1.4,4-0.7,4.5,1.1c0.9,2,0,5.6-2.7,5.3C312.9,218.6,312.3,213.9,314.2,212.1z"/>
<path class="st0" d="M71.3,213.2c2.1-1.6,5.9-0.8,6.3,2.1c0.7,3.1,0.8,8.7-3.5,9C68.8,224.2,68.8,216.4,71.3,213.2z"/>
<path class="st0" d="M93.4,213.4c2.3-2,6.4-0.7,6.6,2.5c0.6,3.1,0.4,8.6-4,8.4C91,223.7,91.3,216.7,93.4,213.4z"/>
<path class="st0" d="M116.3,213.1c2.3-1.7,6,0,6,2.9c0.5,2.9,0.6,7.8-3.2,8.2C113.5,224.6,113.4,216.1,116.3,213.1z"/>
<path class="st0" d="M293.1,213c1.8-1,4.6-0.8,5.5,1.2c1,2.4,1,5.2,0.2,7.7c-0.8,3.1-6.1,3.1-7,0C291,219.1,290.8,215.3,293.1,213z"
	/>
<path class="st0" d="M190.4,222c0.7-3.2,4.6-2.5,7.1-2.8c-0.5,1.5-0.1,3.8-1.8,4.7C193.9,225.1,190.1,224.9,190.4,222z"/>
<path class="st0" d="M312.2,229.1c2.8-1.1,6-0.8,8.9,0c1.4,4-4.2,4.7-7,4.3C311.7,233.7,310.1,230.6,312.2,229.1z"/>
</svg>
